<?xml version="1.0" encoding="UTF-8" standalone="no"?>
<!DOCTYPE svg PUBLIC "-//W3C//DTD SVG 1.1//EN" "http://www.w3.org/Graphics/SVG/1.1/DTD/svg11.dtd">
<svg width="100%" height="100%" viewBox="0 0 64 64" version="1.1" xmlns="http://www.w3.org/2000/svg" xmlns:xlink="http://www.w3.org/1999/xlink" xml:space="preserve" xmlns:serif="http://www.serif.com/" style="fill-rule:evenodd;clip-rule:evenodd;stroke-linejoin:round;stroke-miterlimit:2;">
    <g transform="matrix(1,0,0,1,-2650,0)">
        <g id="Star" transform="matrix(0.731829,0,0,0.83463,1579.66,-888.812)">
            <rect x="1462.55" y="1064.92" width="87.452" height="76.681" style="fill:none;"/>
            <g transform="matrix(1.36644,0,0,1.19814,-2521.27,277.742)">
                <g transform="matrix(3.66667,0,0,0.366667,-10633.9,407.767)">
                    <path d="M3710,764C3710,762.344 3709.87,761 3709.7,761L3698.3,761C3698.13,761 3698,762.344 3698,764L3698,770C3698,771.656 3698.13,773 3698.3,773L3709.7,773C3709.87,773 3710,771.656 3710,770L3710,764Z" style="fill:rgb(255,229,102);"/>
                </g>
                <g transform="matrix(2.24519e-16,3.66667,-0.366667,2.24519e-17,3228.7,-12892.3)">
                    <path d="M3710,764C3710,762.344 3709.87,761 3709.7,761L3698.3,761C3698.13,761 3698,762.344 3698,764L3698,770C3698,771.656 3698.13,773 3698.3,773L3709.7,773C3709.87,773 3710,771.656 3710,770L3710,764Z" style="fill:rgb(255,229,102);"/>
                </g>
            </g>
        </g>
    </g>
</svg>
