<?xml version="1.0" encoding="UTF-8" standalone="no"?>
<!DOCTYPE svg PUBLIC "-//W3C//DTD SVG 1.1//EN" "http://www.w3.org/Graphics/SVG/1.1/DTD/svg11.dtd">
<svg width="100%" height="100%" viewBox="0 0 512 512" version="1.1" xmlns="http://www.w3.org/2000/svg" xmlns:xlink="http://www.w3.org/1999/xlink" xml:space="preserve" xmlns:serif="http://www.serif.com/" style="fill-rule:evenodd;clip-rule:evenodd;stroke-linecap:round;stroke-linejoin:round;stroke-miterlimit:0;">
    <g transform="matrix(1,0,0,1,-2576,-1558)">
        <g id="Tile_B" transform="matrix(1.65696,0,0,1.65696,1101.31,-789.909)">
            <rect x="890" y="1417" width="309" height="309" style="fill:none;"/>
            <g transform="matrix(1.72433,0,0,1.72433,-7962.22,783.576)">
                <path d="M5266.89,372.945C5289.2,372.946 5307.31,391.057 5307.31,413.365L5307.31,500.525C5307.31,522.834 5289.2,540.945 5266.89,540.945L5179.73,540.945C5157.42,540.945 5139.31,522.834 5139.31,500.525L5139.31,413.365C5139.31,391.057 5157.42,372.946 5179.73,372.945L5266.89,372.945Z" style="fill:none;stroke:rgb(0,245,228);stroke-width:8px;"/>
                <path d="M5266.89,372.945C5289.2,372.946 5307.31,391.057 5307.31,413.365L5307.31,500.525C5307.31,522.834 5289.2,540.945 5266.89,540.945L5179.73,540.945C5157.42,540.945 5139.31,522.834 5139.31,500.525L5139.31,413.365C5139.31,391.057 5157.42,372.946 5179.73,372.945L5266.89,372.945Z" style="fill:rgb(85,72,123);"/>
            </g>
            <g>
                <g transform="matrix(0.187442,0.699542,-0.699542,0.187442,2174.42,1076.2)">
                    <path d="M396.388,1588.06C397.318,1586.81 398.301,1585.54 399.708,1584.93C401.877,1584 404.488,1584.34 406.329,1585.71C407.812,1586.82 408.634,1588.48 409.614,1590.03C411.472,1592.97 413.241,1595.95 414.93,1598.99L415.068,1599.24C415.723,1601.14 416.183,1601.67 415.778,1603.74C414.914,1608.17 408.589,1610.74 404.857,1607.49C403.58,1606.38 402.891,1604.76 402.022,1603.25C400.497,1600.61 398.907,1598.01 397.253,1595.45L396.768,1594.71L395.853,1592.59L395.721,1590.27C395.943,1589.53 396.166,1588.8 396.388,1588.06ZM176.141,1841.56C176.689,1841.01 177.152,1840.37 177.787,1839.93C179.685,1838.62 182.053,1838.27 184.9,1839.6C185.054,1839.67 185.208,1839.75 185.362,1839.82C188.919,1841.46 192.549,1842.99 196.23,1844.4L198.216,1845.59C199.486,1847.15 200.099,1847.49 200.432,1849.57C201.031,1853.32 197.699,1857.35 193.742,1857.29C192.97,1857.28 192.221,1857.02 191.468,1856.85C191.454,1856.85 190.45,1856.46 190.445,1856.46C186.498,1854.93 182.599,1853.25 178.756,1851.45C178.756,1851.45 177.505,1850.77 176.842,1850.1C175.74,1848.99 175.065,1847.52 174.937,1845.96C174.812,1844.43 175.476,1842.96 176.141,1841.56ZM250.232,1508.66C251.529,1507.12 251.744,1506.45 253.73,1505.73C256.082,1504.88 257.365,1505.33 258.93,1505.36C262.563,1505.41 266.193,1505.58 269.816,1505.85L272.06,1506.42C273.726,1507.56 274.409,1507.7 275.326,1509.61C277.035,1513.15 274.88,1517.86 271.129,1518.92C269.675,1519.33 268.177,1519.1 266.809,1519.01C263.209,1518.79 259.601,1518.67 255.99,1518.67L253.71,1518.26C253.042,1517.87 252.297,1517.6 251.707,1517.1C250.508,1516.09 249.703,1514.69 249.433,1513.15C249.169,1511.64 249.697,1510.12 250.232,1508.66ZM77.065,1708.09C78.412,1706.59 78.648,1705.93 80.656,1705.28C83.656,1704.3 87.165,1705.78 88.605,1708.48C89.303,1709.79 89.405,1711.29 89.608,1712.63C90.161,1716.21 90.821,1719.77 91.598,1723.31L91.695,1725.62C91.085,1727.54 91.141,1728.24 89.582,1729.66C86.743,1732.25 81.573,1731.64 79.458,1728.31C78.456,1726.73 78.282,1724.86 77.914,1723.03C77.213,1719.56 76.617,1716.06 76.121,1712.55L76.199,1710.24C76.488,1709.52 76.776,1708.81 77.065,1708.09Z" style="fill:rgb(248,198,139);"/>
                </g>
                <g transform="matrix(0.603516,0,0,0.603516,890,553.369)">
                    <circle cx="256" cy="1687" r="175" style="fill:rgb(244,8,138);"/>
                </g>
                <g transform="matrix(-0.603516,0,0,-0.603516,1199,2589.63)">
                    <path d="M90.108,1631.34L231.826,1631.34C237.262,1631.34 242.476,1633.5 246.32,1637.34C250.164,1641.19 252.324,1646.4 252.324,1651.84L252.324,1651.84C252.324,1663.16 243.146,1672.34 231.824,1672.34L81.659,1672.34C82.832,1658.12 85.71,1644.38 90.108,1631.34Z" style="fill:rgb(255,0,140);"/>
                </g>
                <g transform="matrix(-0.603516,0,0,-0.603516,1199,2589.63)">
                    <path d="M103.053,1771.98L232.476,1771.98C237.913,1771.98 243.127,1774.14 246.971,1777.99C250.815,1781.83 252.974,1787.05 252.974,1792.48L252.974,1792.48C252.974,1797.92 250.815,1803.13 246.97,1806.98C243.126,1810.82 237.911,1812.98 232.474,1812.98L134.655,1812.98C122.189,1801 111.5,1787.18 103.053,1771.98Z" style="fill:rgb(255,0,140);"/>
                </g>
                <g transform="matrix(-0.603516,0,0,-0.603516,1199,2589.63)">
                    <path d="M81.984,1705.51L189.001,1705.51C200.322,1705.51 209.501,1714.69 209.501,1726.01C209.501,1726.01 209.501,1726.01 209.501,1726.01C209.501,1737.33 200.322,1746.51 189.001,1746.51L91.412,1746.51C86.686,1733.49 83.469,1719.75 81.984,1705.51Z" style="fill:rgb(255,0,140);"/>
                </g>
                <g transform="matrix(-0.603516,0,0,-0.603516,1199,2589.63)">
                    <path d="M430.341,1701.66C429.168,1715.88 426.29,1729.62 421.892,1742.66L280.176,1742.66C268.854,1742.66 259.676,1733.48 259.676,1722.16L259.676,1722.16C259.676,1710.87 268.808,1701.71 280.176,1701.66L430.341,1701.66Z" style="fill:rgb(209,58,141);"/>
                </g>
                <g transform="matrix(-0.603516,0,0,-0.603516,1199,2589.63)">
                    <path d="M377.345,1561.02C389.811,1573 400.5,1586.82 408.947,1602.02L279.526,1602.02C268.204,1602.02 259.026,1592.84 259.026,1581.52L259.026,1581.52C259.026,1576.08 261.185,1570.87 265.03,1567.02C268.851,1563.2 274.027,1561.04 279.526,1561.02L377.345,1561.02Z" style="fill:rgb(209,58,141);"/>
                </g>
                <g transform="matrix(-0.603516,0,0,-0.603516,1199,2589.63)">
                    <path d="M420.588,1627.49C425.314,1640.51 428.531,1654.25 430.016,1668.49L322.999,1668.49C311.678,1668.49 302.499,1659.31 302.499,1647.99C302.499,1647.99 302.499,1647.99 302.499,1647.99C302.499,1636.7 311.632,1627.54 322.999,1627.49L420.588,1627.49Z" style="fill:rgb(209,58,141);"/>
                </g>
                <g transform="matrix(0.436329,0,0,0.51647,731.216,721.942)">
                    <ellipse cx="804" cy="1739" rx="86" ry="52" style="fill:rgb(255,65,169);"/>
                </g>
            </g>
        </g>
    </g>
</svg>
