<?xml version="1.0" encoding="UTF-8" standalone="no"?>
<!DOCTYPE svg PUBLIC "-//W3C//DTD SVG 1.1//EN" "http://www.w3.org/Graphics/SVG/1.1/DTD/svg11.dtd">
<svg width="100%" height="100%" viewBox="0 0 512 512" version="1.1" xmlns="http://www.w3.org/2000/svg" xmlns:xlink="http://www.w3.org/1999/xlink" xml:space="preserve" xmlns:serif="http://www.serif.com/" style="fill-rule:evenodd;clip-rule:evenodd;stroke-linecap:round;stroke-linejoin:round;stroke-miterlimit:0;">
    <g transform="matrix(1,0,0,1,-1964,-1558)">
        <g id="Tile_A" transform="matrix(1.65696,0,0,1.65696,489.307,-789.909)">
            <rect x="890" y="1417" width="309" height="309" style="fill:none;"/>
            <g transform="matrix(1.72433,0,0,1.72433,-7962.22,783.576)">
                <path d="M5266.89,372.945C5289.2,372.946 5307.31,391.057 5307.31,413.365L5307.31,500.525C5307.31,522.834 5289.2,540.945 5266.89,540.945L5179.73,540.945C5157.42,540.945 5139.31,522.834 5139.31,500.525L5139.31,413.365C5139.31,391.057 5157.42,372.946 5179.73,372.945L5266.89,372.945Z" style="fill:none;stroke:rgb(0,245,228);stroke-width:8px;"/>
                <path d="M5266.89,372.945C5289.2,372.946 5307.31,391.057 5307.31,413.365L5307.31,500.525C5307.31,522.834 5289.2,540.945 5266.89,540.945L5179.73,540.945C5157.42,540.945 5139.31,522.834 5139.31,500.525L5139.31,413.365C5139.31,391.057 5157.42,372.946 5179.73,372.945L5266.89,372.945Z" style="fill:rgb(85,72,123);"/>
            </g>
            <g>
                <g transform="matrix(0.627192,-0.362109,0.362109,0.627192,270.842,606.127)">
                    <path d="M198.217,1845.59C199.487,1847.15 200.099,1847.49 200.432,1849.57C201.053,1853.46 197.638,1857.35 193.741,1857.29C192.969,1857.28 192.22,1857.02 191.467,1856.85C191.454,1856.85 190.449,1856.46 190.444,1856.46C186.483,1854.92 182.593,1853.25 178.756,1851.45L178.732,1851.44C177.088,1850.27 176.407,1850.12 175.525,1848.2C173.35,1843.47 178.125,1836.44 184.9,1839.6C185.054,1839.67 185.208,1839.75 185.362,1839.82C189.678,1841.81 194.434,1843.32 198.217,1845.59ZM87.176,1706.66C87.652,1707.27 88.241,1707.8 88.604,1708.48C89.361,1709.9 89.442,1711.55 89.689,1713.15C90.208,1716.44 90.82,1719.71 91.522,1722.96L91.598,1723.31C91.682,1725.32 91.973,1725.96 90.994,1727.83C88.908,1731.82 82.09,1732.46 79.457,1728.31C78.458,1726.73 78.282,1724.86 77.914,1723.03C77.214,1719.56 76.618,1716.06 76.121,1712.56L76.199,1710.24C76.78,1708.8 77.405,1707.32 78.611,1706.37C79.845,1705.4 81.38,1704.9 82.946,1704.96C84.477,1705.01 85.856,1705.84 87.176,1706.66ZM407.916,1587.4C410.392,1591.17 412.728,1595.04 414.929,1598.99L415.069,1599.24C415.723,1601.14 416.183,1601.67 415.778,1603.74C414.915,1608.16 408.564,1610.72 404.857,1607.49C403.582,1606.38 402.891,1604.76 402.022,1603.25C400.349,1600.35 398.6,1597.5 396.768,1594.71L395.853,1592.59C395.765,1591.03 395.699,1589.42 396.388,1588.06C397.449,1585.95 399.668,1584.53 401.962,1584.4C404.07,1584.28 404.529,1584.81 406.329,1585.71C406.858,1586.27 407.387,1586.84 407.916,1587.4ZM273.973,1507.73C275.15,1509.36 275.743,1509.73 275.954,1511.83C276.26,1514.87 274.125,1518.07 271.129,1518.92C269.553,1519.36 267.898,1519.08 266.273,1518.98C262.848,1518.77 259.419,1518.67 255.99,1518.67L253.711,1518.26C251.967,1517.25 251.275,1517.15 250.222,1515.33C247.945,1511.37 250.401,1505.32 256.586,1505.33C257.367,1505.34 258.148,1505.34 258.929,1505.36C262.562,1505.41 266.192,1505.58 269.816,1505.85L272.06,1506.42C272.698,1506.86 273.336,1507.29 273.973,1507.73Z" style="fill:rgb(191,35,121);"/>
                </g>
                <g transform="matrix(0.603516,0,0,0.603516,890,553.369)">
                    <circle cx="256" cy="1687" r="175" style="fill:rgb(127,253,251);"/>
                </g>
                <g transform="matrix(0.603516,0,0,0.603516,890,553.369)">
                    <path d="M90.108,1631.34L231.826,1631.34C237.262,1631.34 242.476,1633.5 246.32,1637.34C250.164,1641.19 252.324,1646.4 252.324,1651.84L252.324,1651.84C252.324,1663.16 243.146,1672.34 231.824,1672.34L81.659,1672.34C82.832,1658.12 85.71,1644.38 90.108,1631.34Z" style="fill:rgb(3,225,211);"/>
                </g>
                <g transform="matrix(0.603516,0,0,0.603516,890,553.369)">
                    <path d="M103.053,1771.98L232.476,1771.98C237.913,1771.98 243.127,1774.14 246.971,1777.99C250.815,1781.83 252.974,1787.05 252.974,1792.48L252.974,1792.48C252.974,1797.92 250.815,1803.13 246.97,1806.98C243.126,1810.82 237.911,1812.98 232.474,1812.98L134.655,1812.98C122.189,1801 111.5,1787.18 103.053,1771.98Z" style="fill:rgb(3,225,211);"/>
                </g>
                <g transform="matrix(0.603516,0,0,0.603516,890,553.369)">
                    <path d="M81.984,1705.51L189.001,1705.51C200.322,1705.51 209.501,1714.69 209.501,1726.01C209.501,1726.01 209.501,1726.01 209.501,1726.01C209.501,1737.33 200.322,1746.51 189.001,1746.51L91.412,1746.51C86.686,1733.49 83.469,1719.75 81.984,1705.51Z" style="fill:rgb(3,225,211);"/>
                </g>
                <g transform="matrix(0.603516,0,0,0.603516,890,553.369)">
                    <path d="M430.341,1701.66C429.168,1715.88 426.29,1729.62 421.892,1742.66L280.176,1742.66C268.854,1742.66 259.676,1733.48 259.676,1722.16L259.676,1722.16C259.676,1710.87 268.808,1701.71 280.176,1701.66L430.341,1701.66Z" style="fill:rgb(3,225,211);"/>
                </g>
                <g transform="matrix(0.603516,0,0,0.603516,890,553.369)">
                    <path d="M377.345,1561.02C389.811,1573 400.5,1586.82 408.947,1602.02L279.526,1602.02C268.204,1602.02 259.026,1592.84 259.026,1581.52L259.026,1581.52C259.026,1576.08 261.185,1570.87 265.03,1567.02C268.851,1563.2 274.027,1561.04 279.526,1561.02L377.345,1561.02Z" style="fill:rgb(3,225,211);"/>
                </g>
                <g transform="matrix(0.603516,0,0,0.603516,890,553.369)">
                    <path d="M420.588,1627.49C425.314,1640.51 428.531,1654.25 430.016,1668.49L322.999,1668.49C311.678,1668.49 302.499,1659.31 302.499,1647.99C302.499,1647.99 302.499,1647.99 302.499,1647.99C302.499,1636.7 311.632,1627.54 322.999,1627.49L420.588,1627.49Z" style="fill:rgb(3,225,211);"/>
                </g>
            </g>
        </g>
    </g>
</svg>
