<?xml version="1.0" encoding="UTF-8" standalone="no"?>
<!DOCTYPE svg PUBLIC "-//W3C//DTD SVG 1.1//EN" "http://www.w3.org/Graphics/SVG/1.1/DTD/svg11.dtd">
<svg width="100%" height="100%" viewBox="0 0 512 512" version="1.1" xmlns="http://www.w3.org/2000/svg" xmlns:xlink="http://www.w3.org/1999/xlink" xml:space="preserve" xmlns:serif="http://www.serif.com/" style="fill-rule:evenodd;clip-rule:evenodd;stroke-linecap:round;stroke-linejoin:round;stroke-miterlimit:0;">
    <g transform="matrix(1,0,0,1,-3188,-1558)">
        <g id="Tile_C" transform="matrix(1.65696,0,0,1.65696,1713.31,-789.909)">
            <rect x="890" y="1417" width="309" height="309" style="fill:none;"/>
            <g transform="matrix(1.72433,0,0,1.72433,-7962.22,783.576)">
                <path d="M5266.89,372.945C5289.2,372.946 5307.31,391.057 5307.31,413.365L5307.31,500.525C5307.31,522.834 5289.2,540.945 5266.89,540.945L5179.73,540.945C5157.42,540.945 5139.31,522.834 5139.31,500.525L5139.31,413.365C5139.31,391.057 5157.42,372.946 5179.73,372.945L5266.89,372.945Z" style="fill:none;stroke:rgb(0,245,228);stroke-width:8px;"/>
                <path d="M5266.89,372.945C5289.2,372.946 5307.31,391.057 5307.31,413.365L5307.31,500.525C5307.31,522.834 5289.2,540.945 5266.89,540.945L5179.73,540.945C5157.42,540.945 5139.31,522.834 5139.31,500.525L5139.31,413.365C5139.31,391.057 5157.42,372.946 5179.73,372.945L5266.89,372.945Z" style="fill:rgb(85,72,123);"/>
            </g>
            <g>
                <g transform="matrix(0.603516,0,0,0.603516,890,553.369)">
                    <circle cx="256" cy="1687" r="175" style="fill:rgb(248,198,139);"/>
                </g>
                <g transform="matrix(-0.603516,0,0,-0.603516,1199,2589.63)">
                    <path d="M90.108,1631.34L231.826,1631.34C237.262,1631.34 242.476,1633.5 246.32,1637.34C250.164,1641.19 252.324,1646.4 252.324,1651.84L252.324,1651.84C252.324,1663.16 243.146,1672.34 231.824,1672.34L81.659,1672.34C82.832,1658.12 85.71,1644.38 90.108,1631.34Z" style="fill:rgb(250,217,179);"/>
                </g>
                <g transform="matrix(-0.603516,0,0,-0.603516,1199,2589.63)">
                    <path d="M103.053,1771.98L232.476,1771.98C237.913,1771.98 243.127,1774.14 246.971,1777.99C250.815,1781.83 252.974,1787.05 252.974,1792.48L252.974,1792.48C252.974,1797.92 250.815,1803.13 246.97,1806.98C243.126,1810.82 237.911,1812.98 232.474,1812.98L134.655,1812.98C122.189,1801 111.5,1787.18 103.053,1771.98Z" style="fill:rgb(250,217,179);"/>
                </g>
                <g transform="matrix(-0.603516,0,0,-0.603516,1199,2589.63)">
                    <path d="M81.984,1705.51L189.001,1705.51C200.322,1705.51 209.501,1714.69 209.501,1726.01C209.501,1726.01 209.501,1726.01 209.501,1726.01C209.501,1737.33 200.322,1746.51 189.001,1746.51L91.412,1746.51C86.686,1733.49 83.469,1719.75 81.984,1705.51Z" style="fill:rgb(250,217,179);"/>
                </g>
                <g transform="matrix(-0.603516,0,0,-0.603516,1199,2589.63)">
                    <path d="M430.341,1701.66C429.168,1715.88 426.29,1729.62 421.892,1742.66L280.176,1742.66C268.854,1742.66 259.676,1733.48 259.676,1722.16L259.676,1722.16C259.676,1710.87 268.808,1701.71 280.176,1701.66L430.341,1701.66Z" style="fill:rgb(246,177,99);"/>
                </g>
                <g transform="matrix(-0.603516,0,0,-0.603516,1199,2589.63)">
                    <path d="M377.345,1561.02C389.811,1573 400.5,1586.82 408.947,1602.02L279.526,1602.02C268.204,1602.02 259.026,1592.84 259.026,1581.52L259.026,1581.52C259.026,1576.08 261.185,1570.87 265.03,1567.02C268.851,1563.2 274.027,1561.04 279.526,1561.02L377.345,1561.02Z" style="fill:rgb(246,177,99);"/>
                </g>
                <g transform="matrix(-0.603516,0,0,-0.603516,1199,2589.63)">
                    <path d="M420.588,1627.49C425.314,1640.51 428.531,1654.25 430.016,1668.49L322.999,1668.49C311.678,1668.49 302.499,1659.31 302.499,1647.99C302.499,1647.99 302.499,1647.99 302.499,1647.99C302.499,1636.7 311.632,1627.54 322.999,1627.49L420.588,1627.49Z" style="fill:rgb(246,177,99);"/>
                </g>
                <g transform="matrix(0.436329,0,0,0.51647,731.216,721.942)">
                    <ellipse cx="804" cy="1739" rx="86" ry="52" style="fill:rgb(252,234,212);"/>
                </g>
                <g transform="matrix(0.739307,0,0,0.603516,-34.8877,566.797)">
                    <path d="M1615.69,1682.5C1631.15,1686.14 1640,1690.43 1640,1695C1640,1708.8 1559.35,1720 1460,1720C1360.65,1720 1280,1708.8 1280,1695C1280,1690.43 1288.85,1686.14 1304.31,1682.5C1335.49,1689.99 1393.56,1695 1460,1695C1526.44,1695 1584.51,1689.99 1615.69,1682.5Z" style="fill:rgb(85,72,123);fill-opacity:0.25;"/>
                </g>
                <g transform="matrix(0.739307,0,0,0.603516,-34.8877,555.481)">
                    <path d="M1602.86,1683.5C1618.32,1687.14 1640,1690.43 1640,1695C1640,1708.8 1559.35,1720 1460,1720C1360.65,1720 1280,1708.8 1280,1695C1280,1690.43 1301.68,1687.14 1317.14,1683.5C1348.32,1690.99 1393.56,1695 1460,1695C1526.44,1695 1571.68,1690.99 1602.86,1683.5Z" style="fill:url(#_Linear1);"/>
                </g>
            </g>
        </g>
    </g>
    <defs>
        <linearGradient id="_Linear1" x1="0" y1="0" x2="1" y2="0" gradientUnits="userSpaceOnUse" gradientTransform="matrix(2.24935e-15,45,-36.7347,2.75546e-15,1451.84,1683.5)"><stop offset="0" style="stop-color:rgb(253,239,224);stop-opacity:1"/><stop offset="1" style="stop-color:rgb(245,170,86);stop-opacity:1"/></linearGradient>
    </defs>
</svg>
