<?xml version="1.0" encoding="UTF-8" standalone="no"?>
<!DOCTYPE svg PUBLIC "-//W3C//DTD SVG 1.1//EN" "http://www.w3.org/Graphics/SVG/1.1/DTD/svg11.dtd">
<svg width="100%" height="100%" viewBox="0 0 512 512" version="1.1" xmlns="http://www.w3.org/2000/svg" xmlns:xlink="http://www.w3.org/1999/xlink" xml:space="preserve" xmlns:serif="http://www.serif.com/" style="fill-rule:evenodd;clip-rule:evenodd;stroke-linecap:round;stroke-linejoin:round;stroke-miterlimit:0;">
    <g transform="matrix(1,0,0,1,-1964,-2762)">
        <g id="Tile_Mask" transform="matrix(1.65696,0,0,1.65696,489.307,414.091)">
            <rect x="890" y="1417" width="309" height="309" style="fill:none;"/>
            <g transform="matrix(1.72433,0,0,1.72433,-7962.22,783.576)">
                <path d="M5266.89,372.945C5289.2,372.946 5307.31,391.057 5307.31,413.365L5307.31,500.525C5307.31,522.834 5289.2,540.945 5266.89,540.945L5179.73,540.945C5157.42,540.945 5139.31,522.834 5139.31,500.525L5139.31,413.365C5139.31,391.057 5157.42,372.946 5179.73,372.945L5266.89,372.945Z" style="fill:none;stroke:rgb(0,245,228);stroke-width:8px;"/>
                <path d="M5266.89,372.945C5289.2,372.946 5307.31,391.057 5307.31,413.365L5307.31,500.525C5307.31,522.834 5289.2,540.945 5266.89,540.945L5179.73,540.945C5157.42,540.945 5139.31,522.834 5139.31,500.525L5139.31,413.365C5139.31,391.057 5157.42,372.946 5179.73,372.945L5266.89,372.945Z" style="fill:rgb(85,72,123);"/>
            </g>
            <g transform="matrix(0.504855,0.39068,-0.39068,0.504855,1572.12,619.796)">
                <circle cx="256" cy="1687" r="175" style="fill:rgb(108,92,157);"/>
            </g>
            <g transform="matrix(0.152317,0.568453,-0.568453,0.152317,1962.27,1169.02)">
                <path d="M413.663,1753.01C415.679,1748.19 417.476,1743.28 419.054,1738.3C419.054,1738.3 419.844,1736.82 419.844,1736.82L421.091,1735.81L422.626,1735.36L424.218,1735.53C426.316,1736.68 427.53,1738.72 426.713,1741.29C425.111,1746.32 423.271,1751.3 421.228,1756.19L420.224,1757.77L418.887,1758.65L417.315,1758.95L415.748,1758.63L414.423,1757.73L413.542,1756.39L413.24,1754.82L413.562,1753.25C413.596,1753.17 413.629,1753.09 413.663,1753.01ZM426.236,1705.41L427.272,1704.19L428.696,1703.45C430.28,1703.33 430.301,1703.33 431.815,1703.82L433.035,1704.85L433.766,1706.28L433.896,1707.87C433.287,1713.15 432.424,1718.41 431.348,1723.62L431.175,1724.44L430.543,1725.91C430.161,1726.28 429.844,1726.74 429.397,1727.03C428.164,1727.83 427.694,1727.62 426.31,1727.6L424.839,1726.97C423.73,1725.83 423.718,1725.81 423.129,1724.33L423.15,1722.73C423.243,1722.3 423.333,1721.86 423.423,1721.43C424.388,1716.69 425.148,1711.93 425.72,1707.15C425.72,1707.15 426.001,1706.14 426.236,1705.41ZM398.419,1781.44C398.655,1781.09 398.888,1780.73 399.122,1780.38C401.654,1776.49 404.039,1772.5 406.262,1768.43L406.654,1767.7L407.672,1766.47C409.076,1765.72 409.096,1765.72 410.678,1765.56L412.209,1766.03L413.444,1767.05L414.195,1768.46C414.411,1770.71 413.244,1772.79 412.159,1774.71C410.126,1778.32 407.965,1781.86 405.691,1785.32L405.251,1785.98L404.122,1787.12C402.654,1787.73 402.634,1787.73 401.044,1787.74L399.564,1787.13L398.429,1786L397.814,1784.52L397.81,1782.92C398.013,1782.43 398.216,1781.93 398.419,1781.44ZM427.469,1671.95L428.733,1670.97L430.277,1670.55C431.854,1670.75 431.875,1670.75 433.256,1671.54L434.238,1672.8C435.371,1676.93 434.892,1678.02 434.971,1680.08C435.11,1683.74 435.132,1687.39 435.057,1691.04C435.057,1691.04 434.705,1692.7 434.705,1692.7L433.784,1694.01L432.432,1694.86L430.856,1695.14L429.294,1694.79L427.985,1693.87L427.128,1692.52L426.853,1690.94C426.863,1690.55 426.869,1690.15 426.876,1689.76C426.947,1684.81 426.815,1679.87 426.478,1674.94C426.478,1674.94 426.677,1673.34 426.677,1673.34C426.941,1672.88 427.205,1672.42 427.469,1671.95ZM378.29,1806.33C381.974,1802.55 385.491,1798.59 388.829,1794.49C388.829,1794.49 390.167,1793.33 390.167,1793.33L391.695,1792.85L393.289,1793L394.706,1793.74C395.592,1794.81 396.051,1795.04 396.205,1796.5C396.261,1797.03 396.108,1797.56 396.06,1798.1L395.315,1799.51C391.896,1803.74 388.28,1807.81 384.505,1811.71L382.849,1812.96L381.284,1813.29C379.922,1813.04 379.42,1813.16 378.367,1812.13C377.985,1811.76 377.763,1811.25 377.46,1810.81L377.127,1809.25L377.418,1807.67C377.709,1807.23 377.999,1806.78 378.29,1806.33ZM421.69,1640.24C423.794,1637.87 427.389,1637.08 429.199,1641.27C429.788,1642.63 430.001,1644.39 430.386,1646.03C431.278,1649.84 432.039,1653.67 432.683,1657.53C432.683,1657.53 432.823,1658.57 432.656,1659.28C432.293,1660.83 430.907,1661.8 429.327,1662.4L427.727,1662.34C426.28,1661.69 426.262,1661.67 425.176,1660.51L424.614,1659.01C424.548,1658.61 424.48,1658.21 424.412,1657.81C423.592,1653.11 422.582,1648.43 421.382,1643.8L421.168,1641.75C421.342,1641.25 421.516,1640.75 421.69,1640.24ZM352.801,1828.21C355.129,1825.78 358.033,1824.11 360.671,1822.06C362.428,1820.7 364.156,1819.3 365.861,1817.87L366.585,1817.26L367.984,1816.48C369.563,1816.3 369.585,1816.3 371.113,1816.74L372.367,1817.73L373.145,1819.13L373.328,1820.72C372.705,1822.9 370.788,1824.46 369.069,1825.86C365.681,1828.63 362.194,1831.27 358.613,1833.77L357.148,1834.42L355.547,1834.45L354.056,1833.87C352.908,1832.77 352.896,1832.76 352.255,1831.3L352.221,1829.7C352.414,1829.2 352.608,1828.71 352.801,1828.21ZM410.868,1608.82L412.148,1607.86L413.698,1607.46C415.272,1607.68 415.292,1607.69 416.66,1608.5L417.621,1609.78C419.995,1614.73 422.126,1619.79 424.036,1624.93L424.402,1626.83L424.028,1628.38L423.086,1629.68L421.721,1630.52L420.14,1630.76L418.584,1630.39L417.289,1629.45L416.454,1628.08C414.622,1623.11 412.549,1618.2 410.261,1613.41C410.261,1613.41 409.827,1611.78 409.827,1611.78L410.053,1610.2C410.324,1609.74 410.596,1609.28 410.868,1608.82ZM324.796,1843.81C329.416,1840.52 334.761,1838.78 339.688,1836.01L340.374,1835.62L341.893,1835.12L343.489,1835.23L344.92,1835.95L345.968,1837.16L346.473,1838.68C346.359,1840.26 346.353,1840.28 345.641,1841.7L344.431,1842.75C339.566,1845.52 334.573,1848.07 329.469,1850.37L327.909,1850.73L326.33,1850.46L324.973,1849.61L324.044,1848.31L323.683,1846.75L323.948,1845.17C324.23,1844.72 324.513,1844.27 324.796,1843.81ZM393.547,1581.34L394.626,1580.16L396.075,1579.48L397.674,1579.4L399.179,1579.95C400.921,1581.54 402.22,1583.57 403.583,1585.55C405.624,1588.51 407.571,1591.54 409.435,1594.62C409.435,1594.62 410.206,1596.5 410.206,1596.5L410.13,1598.1C409.453,1599.54 409.441,1599.56 408.265,1600.63L406.759,1601.17L405.16,1601.09L403.712,1600.41C401.369,1597.84 399.739,1594.5 397.698,1591.48C396.449,1589.64 395.163,1587.82 393.848,1586.02C393.848,1586.02 393.076,1584.44 393.076,1584.44L393.003,1582.85C393.184,1582.34 393.366,1581.84 393.547,1581.34ZM293.279,1855.07L294.366,1853.9L295.82,1853.23C296.265,1853.12 296.709,1853.01 297.153,1852.9C301.767,1851.75 306.306,1850.42 310.787,1848.91L311.209,1848.77C312.784,1848.56 312.806,1848.56 314.342,1848.97L315.612,1849.95L316.413,1851.33L316.623,1852.92C316.213,1854.45 316.203,1854.47 315.236,1855.74L313.851,1856.54C308.652,1858.31 303.377,1859.84 298.047,1861.13L296.131,1861.27L294.63,1860.71C293.463,1859.63 293.451,1859.62 292.786,1858.17L292.724,1856.57C292.909,1856.07 293.094,1855.57 293.279,1855.07ZM372.272,1556.18L373.571,1555.25L375.13,1554.88L376.709,1555.14L378.07,1555.99C381.966,1559.62 385.703,1563.43 389.271,1567.4L389.799,1567.99L390.609,1569.37C390.828,1570.94 390.827,1570.96 390.426,1572.5L389.461,1573.78C388.091,1574.58 388.07,1574.59 386.496,1574.81L384.947,1574.41C382.096,1572.25 380.015,1569.41 377.542,1566.91C375.885,1565.23 374.193,1563.59 372.47,1561.98L371.536,1560.68C371.173,1559.14 371.172,1559.11 371.429,1557.55C371.71,1557.09 371.991,1556.64 372.272,1556.18ZM261.299,1859.04L262.587,1858.09L264.141,1857.71C264.722,1857.68 265.302,1857.65 265.883,1857.62C270.572,1857.34 275.246,1856.88 279.891,1856.24L280.086,1856.21C281.468,1856.29 281.951,1856.11 283.126,1856.99C283.552,1857.32 283.837,1857.79 284.193,1858.19L284.722,1859.7C284.692,1860.23 284.766,1860.78 284.633,1861.3C284.266,1862.72 283.778,1862.88 282.746,1863.81L281.235,1864.33C275.732,1865.11 270.192,1865.62 264.636,1865.9C264.636,1865.9 262.937,1865.66 262.937,1865.66L261.567,1864.84L260.617,1863.55L260.233,1861.99L260.472,1860.41C260.748,1859.95 261.023,1859.5 261.299,1859.04ZM345.856,1536.78L346.958,1535.62L348.42,1534.97C350.743,1534.91 352.817,1536.31 354.768,1537.61C358.211,1539.89 361.57,1542.29 364.851,1544.8L365.266,1545.12C366.312,1546.32 366.323,1546.34 366.832,1547.84L366.726,1549.44C366.021,1550.86 366.008,1550.88 364.811,1551.93L363.295,1552.44L361.698,1552.33L360.264,1551.62C356.054,1548.38 351.695,1545.33 347.211,1542.49C347.211,1542.49 345.975,1541.34 345.975,1541.34L345.324,1539.87L345.282,1538.27C345.474,1537.78 345.665,1537.28 345.856,1536.78ZM228.057,1858.23L229.12,1857.04L230.56,1856.34C236.04,1856.02 241.831,1857.41 247.754,1857.7C247.754,1857.7 249.67,1858.1 249.67,1858.1L250.959,1859.05C251.78,1860.41 251.787,1860.43 252.026,1862.01L251.642,1863.56C250.699,1864.84 250.683,1864.85 249.322,1865.67L247.739,1865.91C242.152,1865.66 236.576,1865.14 231.033,1864.37L229.521,1863.85L228.324,1862.78L227.626,1861.34L227.532,1859.75C227.707,1859.24 227.882,1858.74 228.057,1858.23ZM317.155,1521.29C318.46,1520.38 318.479,1520.37 320.033,1520.03L321.608,1520.32C326.689,1522.31 331.668,1524.56 336.544,1527.02L338.179,1528.19L338.964,1529.59L339.155,1531.18L338.724,1532.72C337.743,1533.97 337.727,1533.98 336.342,1534.76L334.753,1534.95C331.383,1534.01 328.221,1532.05 324.878,1530.57C322.814,1529.66 320.732,1528.79 318.636,1527.96C318.636,1527.96 317.261,1527.09 317.261,1527.09L316.347,1525.77L316.006,1524.21L316.29,1522.63C316.578,1522.18 316.866,1521.74 317.155,1521.29ZM196.633,1850.03L197.904,1849.06L199.45,1848.64C203.204,1849.14 206.633,1850.69 210.251,1851.7C212.287,1852.26 214.335,1852.79 216.39,1853.28L216.419,1853.28C217.865,1853.94 217.882,1853.96 218.966,1855.12L219.525,1856.62L219.468,1858.22L218.804,1859.67L217.632,1860.77L216.133,1861.33C212.145,1861.18 211.09,1860.43 209.123,1859.89C205.576,1858.93 202.063,1857.86 198.581,1856.68C198.581,1856.68 197.007,1855.82 197.007,1855.82L196.034,1854.55L195.621,1853L195.832,1851.41C196.099,1850.95 196.366,1850.49 196.633,1850.03ZM285.197,1512.79C286.311,1511.66 286.329,1511.65 287.792,1511.03L289.393,1511.01C294.826,1512.04 300.213,1513.33 305.538,1514.85L305.723,1514.9C307.134,1515.63 307.151,1515.65 308.175,1516.86L308.659,1518.39L308.523,1519.98L307.786,1521.4C306.576,1522.42 305.105,1522.96 303.442,1522.78C299.932,1522.41 294.136,1520.28 288.338,1519.16L287.861,1519.07C286.387,1518.48 286.369,1518.46 285.236,1517.35L284.611,1515.88L284.597,1514.28C284.797,1513.78 284.997,1513.29 285.197,1512.79ZM166.257,1837.29L167.305,1836.08L168.737,1835.36L170.333,1835.25L171.852,1835.75C172.304,1836.01 172.759,1836.26 173.213,1836.52C177.297,1838.77 181.457,1840.87 185.7,1842.79L187.44,1843.92L188.288,1845.28C188.517,1846.64 188.796,1847.08 188.192,1848.42C187.973,1848.9 187.572,1849.28 187.262,1849.72L185.905,1850.57C183.652,1850.94 181.394,1849.86 179.358,1848.9C175.438,1847.04 171.589,1845.03 167.815,1842.89L167.792,1842.88C166.591,1841.84 166.578,1841.82 165.866,1840.4L165.752,1838.8C165.92,1838.3 166.089,1837.79 166.257,1837.29ZM236.2,1510.16C238.001,1508.7 240.52,1508.55 242.8,1508.38C247.001,1508.07 251.213,1507.92 255.421,1507.9L256.006,1507.9C261.551,1507.91 267.09,1508.16 272.602,1508.66L272.767,1508.67C274.29,1509.13 274.309,1509.14 275.543,1510.14L276.304,1511.55L276.469,1513.14L276.012,1514.67C275.01,1515.91 274.993,1515.92 273.595,1516.68L272.003,1516.84C271.592,1516.8 271.18,1516.77 270.769,1516.73C265.852,1516.32 260.925,1516.11 255.995,1516.1C255.995,1516.1 251.673,1516.12 248.301,1516.27C245.443,1516.4 242.589,1516.6 239.74,1516.87L238.148,1516.7C236.75,1515.95 236.733,1515.93 235.731,1514.7L235.274,1513.16L235.438,1511.57C235.692,1511.1 235.946,1510.63 236.2,1510.16ZM139.829,1817.9C141.074,1816.91 141.093,1816.9 142.621,1816.46L144.211,1816.65C149.055,1819.34 153.152,1823.57 157.94,1826.95L158.304,1827.2C159.403,1828.35 159.415,1828.37 159.991,1829.85L159.956,1831.45L159.311,1832.91L158.155,1834.02L156.664,1834.6L155.063,1834.57C152.997,1833.66 151.157,1832.2 149.296,1830.82C146.418,1828.68 143.609,1826.45 140.86,1824.15L139.31,1822.43C138.873,1820.9 138.871,1820.88 139.052,1819.3C139.311,1818.83 139.57,1818.37 139.829,1817.9ZM203.577,1516.93L204.608,1515.71L206.029,1514.98C211.329,1513.44 216.698,1512.15 222.117,1511.11L223.952,1511.07L225.426,1511.7L226.548,1512.84L227.149,1514.32L227.136,1515.92L226.511,1517.4L225.37,1518.52L223.887,1519.12C223.463,1519.2 223.04,1519.28 222.617,1519.37C217.944,1520.3 213.312,1521.42 208.729,1522.73L208.31,1522.86C206.726,1522.99 206.705,1522.99 205.189,1522.51L203.965,1521.48C203.234,1520.07 203.228,1520.04 203.093,1518.46C203.254,1517.95 203.415,1517.44 203.577,1516.93ZM116.428,1795.18L117.45,1793.95L118.865,1793.2L120.459,1793.05L121.988,1793.53C123.15,1794.49 124.153,1795.69 125.131,1796.86C127.93,1800.18 130.844,1803.4 133.882,1806.51L134.758,1807.85C135.052,1809.41 135.051,1809.43 134.725,1810.99L133.822,1812.31L132.482,1813.18L130.909,1813.48L129.343,1813.15L128.021,1812.25C124.105,1808.25 120.382,1804.06 116.853,1799.72L116.105,1798.31L115.956,1796.71C116.114,1796.2 116.271,1795.69 116.428,1795.18ZM173.582,1528.32C175.427,1526.86 177.66,1525.9 179.849,1524.87C183.136,1523.32 186.471,1521.88 189.845,1520.53C189.845,1520.53 190.875,1520.11 191.714,1520.13C193.304,1520.15 194.548,1521.3 195.465,1522.72L195.754,1524.29C194.882,1528.35 188.642,1529.82 183.813,1532.07C182.092,1532.88 180.386,1533.71 178.691,1534.57C178.691,1534.57 177.031,1535.07 177.031,1535.07L175.441,1534.88C174.053,1534.11 174.037,1534.09 173.052,1532.85L172.615,1531.31L172.802,1529.72C173.062,1529.25 173.322,1528.79 173.582,1528.32ZM98.679,1767.28L99.914,1766.26L101.445,1765.79L103.038,1765.94L104.451,1766.69C107.874,1770.85 110.197,1776.32 113.444,1781.24L113.724,1781.66C114.329,1783.13 114.333,1783.15 114.33,1784.74L113.714,1786.21L112.579,1787.34L111.099,1787.95C109.51,1787.95 109.489,1787.94 108.022,1787.33L106.892,1786.2C103.803,1781.55 100.929,1776.77 98.273,1771.87C98.273,1771.87 97.774,1770.28 97.774,1770.28L97.928,1768.69C98.178,1768.22 98.429,1767.75 98.679,1767.28ZM145.471,1546.49C146.938,1544.81 148.785,1543.54 150.597,1542.22C153.501,1540.1 156.469,1538.08 159.491,1536.13L160.256,1535.64L161.749,1535.07C163.338,1535.1 163.359,1535.11 164.813,1535.75L165.919,1536.91L166.497,1538.4L166.461,1540L165.814,1541.46L164.657,1542.57C160.148,1545.43 155.768,1548.5 151.541,1551.77L150.108,1552.49L148.511,1552.6L146.994,1552.09L145.786,1551.04L145.073,1549.61L144.962,1548.01C145.132,1547.5 145.301,1547 145.471,1546.49ZM85.446,1737.8L86.447,1736.55L87.849,1735.78L89.44,1735.61L90.977,1736.05C93.591,1738.15 94.433,1742.98 96.023,1747.2C97.02,1749.85 98.539,1753.49 98.539,1753.49L98.861,1755.06L98.558,1756.63L97.677,1757.97L96.351,1758.86L94.783,1759.19L93.212,1758.88L91.876,1758L90.978,1756.68C88.853,1751.63 86.955,1746.5 85.287,1741.29L84.999,1739.34C85.148,1738.83 85.297,1738.32 85.446,1737.8ZM122.029,1568.18C125.594,1564.17 129.333,1560.32 133.235,1556.64L135.103,1555.32L136.682,1555.06L138.24,1555.43C138.673,1555.74 139.176,1555.97 139.54,1556.36C140.543,1557.44 140.418,1557.93 140.641,1559.3L140.275,1560.86C137.086,1565.29 132.402,1568.89 128.49,1573.26L128.159,1573.63C126.891,1574.59 126.872,1574.6 125.333,1575L123.748,1574.78L122.367,1573.97L121.402,1572.7L120.999,1571.15L121.219,1569.56C121.489,1569.1 121.759,1568.64 122.029,1568.18ZM78.985,1705.12C80.193,1704.09 80.211,1704.08 81.723,1703.58L83.319,1703.71C84.736,1704.43 84.753,1704.44 85.786,1705.65L86.282,1707.17C86.917,1712.5 87.791,1717.76 88.903,1722.98L88.925,1724.59L88.332,1726.07L87.215,1727.22L85.745,1727.85L84.144,1727.87L82.658,1727.28L81.511,1726.16C80.888,1724.71 80.653,1723.62 80.652,1723.62C80.539,1723.07 80.428,1722.53 80.319,1721.98C79.592,1718.31 78.979,1714.62 78.484,1710.91C78.409,1710.35 78.337,1709.79 78.267,1709.23C78.086,1707.77 78.33,1706.41 78.985,1705.12ZM102.196,1595.23C104.898,1590.71 107.81,1586.31 110.905,1582.03L111.479,1581.25L112.658,1580.16C114.151,1579.62 114.172,1579.62 115.76,1579.68L117.212,1580.36C118.287,1581.53 118.298,1581.55 118.842,1583.04L118.774,1584.64C116.435,1589.67 112.411,1594.16 109.323,1599.3L109.239,1599.44C108.174,1600.62 108.156,1600.63 106.721,1601.31L105.122,1601.39C103.625,1600.86 103.606,1600.85 102.427,1599.78L101.74,1598.34L101.659,1596.74C101.838,1596.24 102.017,1595.73 102.196,1595.23ZM77.739,1673.07C78.71,1671.82 78.726,1671.8 80.105,1671.01L81.692,1670.81C82.207,1670.94 82.759,1670.99 83.237,1671.22C84.554,1671.88 84.612,1672.39 85.301,1673.59L85.506,1675.18C85.15,1680.4 85.037,1685.63 85.145,1690.86L85.153,1691.2C84.915,1692.56 85.035,1693.06 84.021,1694.13C83.653,1694.51 83.148,1694.74 82.712,1695.05L81.15,1695.4L79.573,1695.12L78.222,1694.26C76.873,1692.35 76.907,1689.88 76.899,1687.58C76.885,1683.36 77.024,1679.15 77.299,1674.94C77.299,1674.94 77.52,1673.88 77.739,1673.07ZM87.775,1625.44C89.663,1620.32 91.774,1615.29 94.104,1610.36L95.22,1608.74L96.595,1607.92C98.168,1607.69 98.189,1607.69 99.73,1608.09L101.013,1609.04L101.832,1610.42L102.062,1612C101.2,1615.4 99.323,1618.59 97.937,1621.95C97.076,1624.04 96.26,1626.15 95.477,1628.27L94.63,1629.68L93.339,1630.63L91.784,1631.01L90.202,1630.76C88.844,1629.94 88.828,1629.92 87.888,1628.64L87.509,1627.09C87.509,1627.09 87.684,1625.69 87.775,1625.44ZM83.437,1640.08L84.636,1639.02L86.149,1638.5C86.682,1638.53 87.231,1638.46 87.747,1638.59C89.168,1638.97 89.328,1639.45 90.246,1640.49L90.767,1642.01C90.414,1647.78 88.366,1653.16 87.41,1658.87L86.782,1660.77L85.688,1661.94C84.427,1662.51 84.082,1662.89 82.631,1662.65C82.105,1662.57 81.632,1662.28 81.133,1662.09L79.964,1661L79.302,1659.54L79.249,1657.94C80.157,1652.41 81.311,1646.93 82.736,1641.52C82.97,1641.04 83.203,1640.56 83.437,1640.08Z" style="fill:rgb(85,72,123);"/>
            </g>
            <g transform="matrix(173.812,0,0,173.812,1013.13,1633.2)">
                <path d="M0.032,-0.507L0.032,-0.566C0.032,-0.587 0.036,-0.606 0.044,-0.625C0.052,-0.644 0.063,-0.66 0.077,-0.674C0.091,-0.687 0.107,-0.698 0.126,-0.706C0.145,-0.714 0.165,-0.718 0.186,-0.718C0.211,-0.718 0.233,-0.713 0.254,-0.703C0.274,-0.693 0.291,-0.679 0.304,-0.661C0.311,-0.652 0.316,-0.643 0.321,-0.636C0.325,-0.628 0.328,-0.619 0.331,-0.61C0.336,-0.593 0.338,-0.57 0.338,-0.539C0.338,-0.522 0.338,-0.507 0.338,-0.496C0.337,-0.484 0.336,-0.474 0.335,-0.465C0.334,-0.456 0.332,-0.449 0.33,-0.443C0.328,-0.436 0.325,-0.43 0.322,-0.425L0.253,-0.307C0.248,-0.299 0.244,-0.291 0.241,-0.283C0.238,-0.274 0.236,-0.265 0.236,-0.256L0.236,-0.176L0.134,-0.176L0.134,-0.269C0.134,-0.284 0.136,-0.298 0.141,-0.311C0.146,-0.324 0.152,-0.337 0.159,-0.35L0.223,-0.454C0.228,-0.463 0.232,-0.472 0.234,-0.482C0.235,-0.492 0.236,-0.502 0.236,-0.512L0.236,-0.565C0.236,-0.579 0.231,-0.591 0.222,-0.601C0.212,-0.611 0.2,-0.616 0.186,-0.616C0.174,-0.616 0.162,-0.612 0.151,-0.603C0.14,-0.594 0.134,-0.582 0.134,-0.565L0.134,-0.507L0.032,-0.507ZM0.134,0L0.134,-0.102L0.236,-0.102L0.236,0L0.134,0Z" style="fill:white;fill-rule:nonzero;"/>
            </g>
        </g>
    </g>
</svg>
